<?xml version="1.0" encoding="UTF-8"?>
<svg xmlns="http://www.w3.org/2000/svg" xmlns:xlink="http://www.w3.org/1999/xlink" width="128px" height="42px" viewBox="0 0 129 42" version="1.1">
<g id="surface1">
<path style=" stroke:none;fill-rule:nonzero;fill:rgb(11.372549%,37.254902%,42.745098%);fill-opacity:1;" d="M 1.261719 1.339844 L 128.488281 1.339844 L 128.488281 41.144531 L 1.261719 41.144531 Z M 1.261719 1.339844 "/>
<path style=" stroke:none;fill-rule:nonzero;fill:rgb(100%,100%,100%);fill-opacity:1;" d="M 122.675781 4.988281 L 124.511719 4.988281 C 124.867188 4.988281 125.144531 5.058594 125.328125 5.210938 C 125.523438 5.351562 125.628906 5.542969 125.628906 5.777344 C 125.628906 5.917969 125.589844 6.035156 125.511719 6.144531 C 125.433594 6.261719 125.328125 6.34375 125.167969 6.414062 C 125.023438 6.472656 124.800781 6.519531 124.484375 6.554688 C 124.722656 6.601562 124.867188 6.660156 124.957031 6.710938 C 125.050781 6.769531 125.117188 6.839844 125.167969 6.921875 C 125.222656 7.003906 125.273438 7.179688 125.339844 7.441406 C 125.394531 7.628906 125.445312 7.757812 125.5 7.828125 C 125.539062 7.878906 125.578125 7.902344 125.628906 7.902344 C 125.683594 7.902344 125.722656 7.878906 125.777344 7.804688 C 125.816406 7.746094 125.839844 7.628906 125.839844 7.464844 L 126.011719 7.464844 C 125.988281 7.949219 125.777344 8.195312 125.40625 8.195312 C 125.289062 8.195312 125.195312 8.171875 125.101562 8.113281 C 125.023438 8.066406 124.957031 7.984375 124.917969 7.878906 C 124.878906 7.804688 124.839844 7.605469 124.800781 7.277344 C 124.773438 7.085938 124.734375 6.945312 124.679688 6.863281 C 124.628906 6.792969 124.550781 6.722656 124.445312 6.671875 C 124.339844 6.625 124.207031 6.601562 124.046875 6.601562 L 123.757812 6.601562 L 123.757812 7.851562 C 123.757812 7.902344 123.773438 7.9375 123.796875 7.960938 C 123.835938 7.984375 123.902344 7.996094 123.984375 7.996094 L 124.324219 7.996094 L 124.324219 8.160156 L 122.675781 8.160156 L 122.675781 7.996094 L 123.019531 7.996094 C 123.097656 7.996094 123.152344 7.984375 123.191406 7.960938 C 123.230469 7.9375 123.246094 7.902344 123.246094 7.851562 L 123.246094 5.316406 C 123.246094 5.257812 123.230469 5.222656 123.191406 5.1875 C 123.152344 5.164062 123.097656 5.152344 123.019531 5.152344 L 122.675781 5.152344 Z M 123.757812 6.449219 L 124.179688 6.449219 C 124.457031 6.449219 124.679688 6.402344 124.839844 6.308594 C 124.996094 6.214844 125.078125 6.035156 125.078125 5.800781 C 125.078125 5.636719 125.050781 5.492188 124.984375 5.398438 C 124.933594 5.304688 124.851562 5.234375 124.746094 5.199219 C 124.65625 5.164062 124.457031 5.152344 124.179688 5.152344 C 123.984375 5.152344 123.863281 5.164062 123.824219 5.1875 C 123.785156 5.210938 123.757812 5.246094 123.757812 5.304688 Z M 123.757812 6.449219 "/>
<path style="fill:none;stroke-width:3.0963;stroke-linecap:butt;stroke-linejoin:miter;stroke:rgb(100%,100%,100%);stroke-opacity:1;stroke-miterlimit:4;" d="M 765.699046 389.099042 C 765.699046 401.53379 755.636385 411.61078 743.211748 411.61078 C 730.787111 411.61078 720.692094 401.53379 720.692094 389.099042 C 720.692094 376.664294 730.787111 366.587303 743.211748 366.587303 C 755.636385 366.587303 765.699046 376.664294 765.699046 389.099042 Z M 765.699046 389.099042 " transform="matrix(0.120728,0,0,0.120944,34.523625,-40.465385)"/>
<path style=" stroke:none;fill-rule:nonzero;fill:rgb(100%,100%,100%);fill-opacity:1;" d="M 33.523438 8.253906 L 31.167969 14.472656 L 15.550781 14.472656 C 12.242188 14.472656 12.203125 18.835938 15.550781 18.835938 L 24.6875 18.835938 C 36.328125 18.820312 36.328125 35.375 24.6875 35.375 L 6.820312 35.375 L 9.273438 29.304688 L 24.929688 29.304688 C 28.300781 29.304688 28.378906 24.894531 24.929688 24.894531 L 15.902344 24.894531 C 4.105469 24.894531 4.066406 8.253906 15.902344 8.253906 Z M 33.523438 8.253906 "/>
<path style=" stroke:none;fill-rule:nonzero;fill:rgb(100%,100%,100%);fill-opacity:1;" d="M 34.183594 8.253906 L 31.832031 14.472656 L 39.265625 14.472656 L 39.265625 35.375 L 45.375 35.375 L 45.375 14.472656 L 51.246094 14.472656 L 53.597656 8.253906 Z M 34.183594 8.253906 "/>
<path style=" stroke:none;fill-rule:nonzero;fill:rgb(100%,100%,100%);fill-opacity:1;" d="M 54.082031 8.253906 L 51.730469 14.472656 L 69.226562 14.472656 C 70.402344 14.472656 71.402344 15.183594 71.402344 16.507812 L 71.402344 18.835938 L 57.550781 18.835938 C 46.859375 18.835938 46.8125 35.375 57.550781 35.375 L 77.496094 35.375 L 77.496094 16.414062 C 77.496094 12.488281 74.207031 8.253906 68.902344 8.253906 Z M 57.871094 24.894531 L 71.402344 24.894531 L 71.402344 29.304688 L 57.871094 29.304688 C 54.710938 29.304688 54.808594 24.894531 57.871094 24.894531 Z M 57.871094 24.894531 "/>
<path style=" stroke:none;fill-rule:nonzero;fill:rgb(100%,100%,100%);fill-opacity:1;" d="M 99.925781 8.253906 L 97.574219 14.472656 L 115.066406 14.472656 C 116.261719 14.472656 117.261719 15.183594 117.261719 16.507812 L 117.261719 18.835938 L 103.410156 18.835938 C 92.71875 18.835938 92.671875 35.375 103.410156 35.375 L 123.339844 35.375 L 123.339844 16.414062 C 123.339844 12.488281 120.050781 8.253906 114.761719 8.253906 Z M 103.714844 24.894531 L 117.261719 24.894531 L 117.261719 29.304688 L 103.714844 29.304688 C 100.570312 29.304688 100.652344 24.894531 103.714844 24.894531 Z M 103.714844 24.894531 "/>
<path style=" stroke:none;fill-rule:nonzero;fill:rgb(100%,100%,100%);fill-opacity:1;" d="M 79.914062 8.253906 L 77.5625 14.472656 L 84.996094 14.472656 L 84.996094 35.375 L 91.089844 35.375 L 91.089844 14.472656 L 96.960938 14.472656 L 99.328125 8.253906 Z M 79.914062 8.253906 "/>
<path style=" stroke:none;fill-rule:nonzero;fill:rgb(100%,0%,0%);fill-opacity:1;" d="M 128.5 41.191406 L 128.9375 41.191406 L 128.9375 41.742188 L 128.5 41.742188 Z M 128.5 41.191406 "/>
</g>
</svg>
