<?xml version="1.0" encoding="UTF-8"?>
<svg xmlns="http://www.w3.org/2000/svg" xmlns:xlink="http://www.w3.org/1999/xlink" width="128px" height="128px" viewBox="0 0 128 128" version="1.1">
<g id="surface1">
<path style=" stroke:none;fill-rule:evenodd;fill:rgb(38.823529%,64.705882%,72.54902%);fill-opacity:1;" d="M 62.457031 24.824219 L 62.457031 0 L 65.542969 0 L 65.542969 24.824219 Z M 62.457031 24.824219 "/>
<path style=" stroke:none;fill-rule:evenodd;fill:rgb(38.823529%,64.705882%,72.54902%);fill-opacity:1;" d="M 76.335938 13.964844 L 50.890625 13.964844 L 50.890625 10.085938 L 76.335938 10.085938 Z M 76.335938 13.964844 "/>
<path style=" stroke:none;fill-rule:evenodd;fill:rgb(98.431373%,68.627451%,23.529412%);fill-opacity:1;" d="M 27.757812 52.75 L 27.757812 13.964844 L 33.15625 13.964844 L 33.15625 52.75 Z M 27.757812 52.75 "/>
<path style=" stroke:none;fill-rule:evenodd;fill:rgb(98.431373%,68.627451%,23.529412%);fill-opacity:1;" d="M 49.347656 35.683594 L 11.566406 35.683594 L 11.566406 29.480469 L 49.347656 29.480469 Z M 49.347656 35.683594 "/>
<path style=" stroke:none;fill-rule:evenodd;fill:rgb(38.823529%,64.705882%,72.54902%);fill-opacity:1;" d="M 94.074219 52.75 L 94.074219 13.964844 L 99.46875 13.964844 L 99.46875 52.75 Z M 94.074219 52.75 "/>
<path style=" stroke:none;fill-rule:evenodd;fill:rgb(38.823529%,64.705882%,72.54902%);fill-opacity:1;" d="M 115.664062 35.683594 L 77.878906 35.683594 L 77.878906 29.480469 L 115.664062 29.480469 Z M 115.664062 35.683594 "/>
<path style=" stroke:none;fill-rule:evenodd;fill:rgb(96.078431%,50.980392%,12.54902%);fill-opacity:1;" d="M 60.144531 86.886719 L 60.144531 41.113281 L 67.085938 41.113281 L 67.085938 86.886719 Z M 60.144531 86.886719 "/>
<path style=" stroke:none;fill-rule:evenodd;fill:rgb(96.078431%,50.980392%,12.54902%);fill-opacity:1;" d="M 87.132812 67.492188 L 40.097656 67.492188 L 40.097656 59.734375 L 87.132812 59.734375 Z M 87.132812 67.492188 "/>
<path style=" stroke:none;fill-rule:evenodd;fill:rgb(38.823529%,64.705882%,72.54902%);fill-opacity:1;" d="M 11.566406 76.800781 L 11.566406 51.976562 L 14.652344 51.976562 L 14.652344 76.800781 Z M 11.566406 76.800781 "/>
<path style=" stroke:none;fill-rule:evenodd;fill:rgb(38.823529%,64.705882%,72.54902%);fill-opacity:1;" d="M 25.445312 65.941406 L 0 65.941406 L 0 62.058594 L 25.445312 62.058594 Z M 25.445312 65.941406 "/>
<path style=" stroke:none;fill-rule:evenodd;fill:rgb(34.117647%,43.137255%,69.803922%);fill-opacity:1;" d="M 113.347656 76.800781 L 113.347656 51.199219 L 117.203125 51.199219 L 117.203125 76.800781 Z M 113.347656 76.800781 "/>
<path style=" stroke:none;fill-rule:evenodd;fill:rgb(34.117647%,43.137255%,69.803922%);fill-opacity:1;" d="M 128 65.941406 L 101.78125 65.941406 L 101.78125 62.058594 L 128 62.058594 Z M 128 65.941406 "/>
<path style=" stroke:none;fill-rule:evenodd;fill:rgb(80.392157%,12.54902%,20%);fill-opacity:1;" d="M 27.757812 114.8125 L 27.757812 76.023438 L 33.15625 76.023438 L 33.15625 114.8125 Z M 27.757812 114.8125 "/>
<path style=" stroke:none;fill-rule:evenodd;fill:rgb(80.392157%,12.54902%,20%);fill-opacity:1;" d="M 49.347656 98.519531 L 11.566406 98.519531 L 11.566406 92.316406 L 49.347656 92.316406 Z M 49.347656 98.519531 "/>
<path style=" stroke:none;fill-rule:evenodd;fill:rgb(14.901961%,33.72549%,60.392157%);fill-opacity:1;" d="M 94.074219 115.585938 L 94.074219 76.800781 L 99.46875 76.800781 L 99.46875 115.585938 Z M 94.074219 115.585938 "/>
<path style=" stroke:none;fill-rule:evenodd;fill:rgb(14.901961%,33.72549%,60.392157%);fill-opacity:1;" d="M 115.664062 98.519531 L 77.878906 98.519531 L 77.878906 92.316406 L 115.664062 92.316406 Z M 115.664062 98.519531 "/>
<path style=" stroke:none;fill-rule:evenodd;fill:rgb(34.117647%,43.137255%,69.803922%);fill-opacity:1;" d="M 61.6875 128 L 61.6875 102.398438 L 66.3125 102.398438 L 66.3125 128 Z M 61.6875 128 "/>
<path style=" stroke:none;fill-rule:evenodd;fill:rgb(34.117647%,43.137255%,69.803922%);fill-opacity:1;" d="M 76.335938 117.914062 L 50.121094 117.914062 L 50.121094 113.261719 L 76.335938 113.261719 Z M 76.335938 117.914062 "/>
</g>
</svg>
